<mxfile host="app.diagrams.net" modified="2023-08-21T18:40:12.948Z" agent="Mozilla/5.0 (Windows NT 10.0; Win64; x64) AppleWebKit/537.36 (KHTML, like Gecko) Chrome/116.0.0.0 Safari/537.36" etag="OyIaQKQqzpYnzTsVr3hN" version="21.6.8" type="github">
  <diagram name="Sayfa -1" id="quC9R4Fshv9ogLETeO2R">
    <mxGraphModel dx="1434" dy="758" grid="1" gridSize="10" guides="1" tooltips="1" connect="1" arrows="1" fold="1" page="1" pageScale="1" pageWidth="827" pageHeight="1169" math="0" shadow="0">
      <root>
        <mxCell id="0" />
        <mxCell id="1" parent="0" />
        <mxCell id="Iu7kBV_Y9KcYV4q4U3Mq-3" value="Ucus" style="swimlane;fontStyle=1;align=center;verticalAlign=top;childLayout=stackLayout;horizontal=1;startSize=26;horizontalStack=0;resizeParent=1;resizeParentMax=0;resizeLast=0;collapsible=1;marginBottom=0;whiteSpace=wrap;html=1;" vertex="1" parent="1">
          <mxGeometry x="280" y="280" width="190" height="198" as="geometry" />
        </mxCell>
        <mxCell id="Iu7kBV_Y9KcYV4q4U3Mq-4" value="+ id: int&lt;br&gt;+ KalkısID: Havaalani&lt;br&gt;+ InısID : Havaalani&lt;br&gt;+ pilotID : Pılot&lt;br&gt;+ yPilotID : Pilot&lt;br&gt;+ KalkısSaat : LocalDataTime&lt;br&gt;+ InısSaat : LocalDataTime" style="text;strokeColor=none;fillColor=none;align=left;verticalAlign=top;spacingLeft=4;spacingRight=4;overflow=hidden;rotatable=0;points=[[0,0.5],[1,0.5]];portConstraint=eastwest;whiteSpace=wrap;html=1;" vertex="1" parent="Iu7kBV_Y9KcYV4q4U3Mq-3">
          <mxGeometry y="26" width="190" height="134" as="geometry" />
        </mxCell>
        <mxCell id="Iu7kBV_Y9KcYV4q4U3Mq-5" value="" style="line;strokeWidth=1;fillColor=none;align=left;verticalAlign=middle;spacingTop=-1;spacingLeft=3;spacingRight=3;rotatable=0;labelPosition=right;points=[];portConstraint=eastwest;strokeColor=inherit;" vertex="1" parent="Iu7kBV_Y9KcYV4q4U3Mq-3">
          <mxGeometry y="160" width="190" height="8" as="geometry" />
        </mxCell>
        <mxCell id="Iu7kBV_Y9KcYV4q4U3Mq-6" value="+ Ucus(pilotID, yPilotID): pilots" style="text;strokeColor=none;fillColor=none;align=left;verticalAlign=top;spacingLeft=4;spacingRight=4;overflow=hidden;rotatable=0;points=[[0,0.5],[1,0.5]];portConstraint=eastwest;whiteSpace=wrap;html=1;" vertex="1" parent="Iu7kBV_Y9KcYV4q4U3Mq-3">
          <mxGeometry y="168" width="190" height="30" as="geometry" />
        </mxCell>
        <mxCell id="Iu7kBV_Y9KcYV4q4U3Mq-10" value="HavaAlanı" style="swimlane;fontStyle=1;align=center;verticalAlign=top;childLayout=stackLayout;horizontal=1;startSize=26;horizontalStack=0;resizeParent=1;resizeParentMax=0;resizeLast=0;collapsible=1;marginBottom=0;whiteSpace=wrap;html=1;" vertex="1" parent="1">
          <mxGeometry y="280" width="190" height="98" as="geometry" />
        </mxCell>
        <mxCell id="Iu7kBV_Y9KcYV4q4U3Mq-11" value="+ id: int&lt;br&gt;+ name: string" style="text;strokeColor=none;fillColor=none;align=left;verticalAlign=top;spacingLeft=4;spacingRight=4;overflow=hidden;rotatable=0;points=[[0,0.5],[1,0.5]];portConstraint=eastwest;whiteSpace=wrap;html=1;" vertex="1" parent="Iu7kBV_Y9KcYV4q4U3Mq-10">
          <mxGeometry y="26" width="190" height="54" as="geometry" />
        </mxCell>
        <mxCell id="Iu7kBV_Y9KcYV4q4U3Mq-12" value="" style="line;strokeWidth=1;fillColor=none;align=left;verticalAlign=middle;spacingTop=-1;spacingLeft=3;spacingRight=3;rotatable=0;labelPosition=right;points=[];portConstraint=eastwest;strokeColor=inherit;" vertex="1" parent="Iu7kBV_Y9KcYV4q4U3Mq-10">
          <mxGeometry y="80" width="190" height="18" as="geometry" />
        </mxCell>
        <mxCell id="Iu7kBV_Y9KcYV4q4U3Mq-14" value="" style="line;strokeWidth=1;fillColor=none;align=left;verticalAlign=middle;spacingTop=-1;spacingLeft=3;spacingRight=3;rotatable=0;labelPosition=right;points=[];portConstraint=eastwest;strokeColor=inherit;" vertex="1" parent="1">
          <mxGeometry x="190" y="325" width="90" height="8" as="geometry" />
        </mxCell>
        <mxCell id="Iu7kBV_Y9KcYV4q4U3Mq-15" value="1..*" style="text;html=1;align=center;verticalAlign=middle;resizable=0;points=[];autosize=1;strokeColor=none;fillColor=none;" vertex="1" parent="1">
          <mxGeometry x="190" y="298" width="40" height="30" as="geometry" />
        </mxCell>
        <mxCell id="Iu7kBV_Y9KcYV4q4U3Mq-16" value="1..*" style="text;html=1;align=center;verticalAlign=middle;resizable=0;points=[];autosize=1;strokeColor=none;fillColor=none;" vertex="1" parent="1">
          <mxGeometry x="240" y="298" width="40" height="30" as="geometry" />
        </mxCell>
        <mxCell id="Iu7kBV_Y9KcYV4q4U3Mq-17" value="Pilots" style="swimlane;fontStyle=1;align=center;verticalAlign=top;childLayout=stackLayout;horizontal=1;startSize=26;horizontalStack=0;resizeParent=1;resizeParentMax=0;resizeLast=0;collapsible=1;marginBottom=0;whiteSpace=wrap;html=1;" vertex="1" parent="1">
          <mxGeometry x="600" y="280" width="190" height="140" as="geometry" />
        </mxCell>
        <mxCell id="Iu7kBV_Y9KcYV4q4U3Mq-18" value="+ deneyim: int&lt;br&gt;+ sirket: HavaYoluSirketi" style="text;strokeColor=none;fillColor=none;align=left;verticalAlign=top;spacingLeft=4;spacingRight=4;overflow=hidden;rotatable=0;points=[[0,0.5],[1,0.5]];portConstraint=eastwest;whiteSpace=wrap;html=1;" vertex="1" parent="Iu7kBV_Y9KcYV4q4U3Mq-17">
          <mxGeometry y="26" width="190" height="54" as="geometry" />
        </mxCell>
        <mxCell id="Iu7kBV_Y9KcYV4q4U3Mq-19" value="" style="line;strokeWidth=1;fillColor=none;align=left;verticalAlign=middle;spacingTop=-1;spacingLeft=3;spacingRight=3;rotatable=0;labelPosition=right;points=[];portConstraint=eastwest;strokeColor=inherit;" vertex="1" parent="Iu7kBV_Y9KcYV4q4U3Mq-17">
          <mxGeometry y="80" width="190" height="8" as="geometry" />
        </mxCell>
        <mxCell id="Iu7kBV_Y9KcYV4q4U3Mq-20" value="+ ucakKullanım():boolean&lt;br&gt;+ pilot() : string" style="text;strokeColor=none;fillColor=none;align=left;verticalAlign=top;spacingLeft=4;spacingRight=4;overflow=hidden;rotatable=0;points=[[0,0.5],[1,0.5]];portConstraint=eastwest;whiteSpace=wrap;html=1;" vertex="1" parent="Iu7kBV_Y9KcYV4q4U3Mq-17">
          <mxGeometry y="88" width="190" height="52" as="geometry" />
        </mxCell>
        <mxCell id="Iu7kBV_Y9KcYV4q4U3Mq-21" value="Pilot" style="swimlane;fontStyle=1;align=center;verticalAlign=top;childLayout=stackLayout;horizontal=1;startSize=26;horizontalStack=0;resizeParent=1;resizeParentMax=0;resizeLast=0;collapsible=1;marginBottom=0;whiteSpace=wrap;html=1;" vertex="1" parent="1">
          <mxGeometry x="560" y="560" width="200" height="130" as="geometry" />
        </mxCell>
        <mxCell id="Iu7kBV_Y9KcYV4q4U3Mq-22" value="+ deneyim: int&lt;br&gt;+ sirket: string&lt;br&gt;+ yPilot : boolean" style="text;strokeColor=none;fillColor=none;align=left;verticalAlign=top;spacingLeft=4;spacingRight=4;overflow=hidden;rotatable=0;points=[[0,0.5],[1,0.5]];portConstraint=eastwest;whiteSpace=wrap;html=1;" vertex="1" parent="Iu7kBV_Y9KcYV4q4U3Mq-21">
          <mxGeometry y="26" width="200" height="54" as="geometry" />
        </mxCell>
        <mxCell id="Iu7kBV_Y9KcYV4q4U3Mq-23" value="" style="line;strokeWidth=1;fillColor=none;align=left;verticalAlign=middle;spacingTop=-1;spacingLeft=3;spacingRight=3;rotatable=0;labelPosition=right;points=[];portConstraint=eastwest;strokeColor=inherit;" vertex="1" parent="Iu7kBV_Y9KcYV4q4U3Mq-21">
          <mxGeometry y="80" width="200" height="8" as="geometry" />
        </mxCell>
        <mxCell id="Iu7kBV_Y9KcYV4q4U3Mq-24" value="+ ucakKullanım():boolean&lt;br style=&quot;border-color: var(--border-color);&quot;&gt;+ pilot() : string" style="text;strokeColor=none;fillColor=none;align=left;verticalAlign=top;spacingLeft=4;spacingRight=4;overflow=hidden;rotatable=0;points=[[0,0.5],[1,0.5]];portConstraint=eastwest;whiteSpace=wrap;html=1;" vertex="1" parent="Iu7kBV_Y9KcYV4q4U3Mq-21">
          <mxGeometry y="88" width="200" height="42" as="geometry" />
        </mxCell>
        <mxCell id="Iu7kBV_Y9KcYV4q4U3Mq-34" value="" style="endArrow=none;html=1;rounded=0;dashed=1;dashPattern=1 2;entryX=0.426;entryY=1.038;entryDx=0;entryDy=0;entryPerimeter=0;" edge="1" parent="1" target="Iu7kBV_Y9KcYV4q4U3Mq-20">
          <mxGeometry relative="1" as="geometry">
            <mxPoint x="680" y="480" as="sourcePoint" />
            <mxPoint x="730" y="500" as="targetPoint" />
          </mxGeometry>
        </mxCell>
        <mxCell id="Iu7kBV_Y9KcYV4q4U3Mq-35" value="1" style="resizable=0;html=1;whiteSpace=wrap;align=right;verticalAlign=bottom;" connectable="0" vertex="1" parent="Iu7kBV_Y9KcYV4q4U3Mq-34">
          <mxGeometry x="1" relative="1" as="geometry" />
        </mxCell>
        <mxCell id="Iu7kBV_Y9KcYV4q4U3Mq-36" value="Extends" style="text;html=1;align=center;verticalAlign=middle;resizable=0;points=[];autosize=1;strokeColor=none;fillColor=none;" vertex="1" parent="1">
          <mxGeometry x="650" y="478" width="70" height="30" as="geometry" />
        </mxCell>
        <mxCell id="Iu7kBV_Y9KcYV4q4U3Mq-39" value="" style="endArrow=none;html=1;rounded=0;dashed=1;dashPattern=1 2;entryX=0.426;entryY=1.038;entryDx=0;entryDy=0;entryPerimeter=0;" edge="1" parent="1">
          <mxGeometry relative="1" as="geometry">
            <mxPoint x="680" y="560" as="sourcePoint" />
            <mxPoint x="681" y="502" as="targetPoint" />
          </mxGeometry>
        </mxCell>
        <mxCell id="Iu7kBV_Y9KcYV4q4U3Mq-40" value="1" style="resizable=0;html=1;whiteSpace=wrap;align=right;verticalAlign=bottom;" connectable="0" vertex="1" parent="Iu7kBV_Y9KcYV4q4U3Mq-39">
          <mxGeometry x="1" relative="1" as="geometry" />
        </mxCell>
        <mxCell id="Iu7kBV_Y9KcYV4q4U3Mq-41" value="HavaYoluSirketi" style="swimlane;fontStyle=1;align=center;verticalAlign=top;childLayout=stackLayout;horizontal=1;startSize=26;horizontalStack=0;resizeParent=1;resizeParentMax=0;resizeLast=0;collapsible=1;marginBottom=0;whiteSpace=wrap;html=1;" vertex="1" parent="1">
          <mxGeometry x="440" y="80" width="190" height="120" as="geometry" />
        </mxCell>
        <mxCell id="Iu7kBV_Y9KcYV4q4U3Mq-42" value="+ id: int&lt;br&gt;+ ucakID: Ucak&lt;br&gt;+ pilot : Pilots" style="text;strokeColor=none;fillColor=none;align=left;verticalAlign=top;spacingLeft=4;spacingRight=4;overflow=hidden;rotatable=0;points=[[0,0.5],[1,0.5]];portConstraint=eastwest;whiteSpace=wrap;html=1;" vertex="1" parent="Iu7kBV_Y9KcYV4q4U3Mq-41">
          <mxGeometry y="26" width="190" height="54" as="geometry" />
        </mxCell>
        <mxCell id="Iu7kBV_Y9KcYV4q4U3Mq-43" value="" style="line;strokeWidth=1;fillColor=none;align=left;verticalAlign=middle;spacingTop=-1;spacingLeft=3;spacingRight=3;rotatable=0;labelPosition=right;points=[];portConstraint=eastwest;strokeColor=inherit;" vertex="1" parent="Iu7kBV_Y9KcYV4q4U3Mq-41">
          <mxGeometry y="80" width="190" height="8" as="geometry" />
        </mxCell>
        <mxCell id="Iu7kBV_Y9KcYV4q4U3Mq-44" value="+ ucus():string" style="text;strokeColor=none;fillColor=none;align=left;verticalAlign=top;spacingLeft=4;spacingRight=4;overflow=hidden;rotatable=0;points=[[0,0.5],[1,0.5]];portConstraint=eastwest;whiteSpace=wrap;html=1;" vertex="1" parent="Iu7kBV_Y9KcYV4q4U3Mq-41">
          <mxGeometry y="88" width="190" height="32" as="geometry" />
        </mxCell>
        <mxCell id="Iu7kBV_Y9KcYV4q4U3Mq-46" value="Ucak" style="swimlane;fontStyle=1;align=center;verticalAlign=top;childLayout=stackLayout;horizontal=1;startSize=26;horizontalStack=0;resizeParent=1;resizeParentMax=0;resizeLast=0;collapsible=1;marginBottom=0;whiteSpace=wrap;html=1;" vertex="1" parent="1">
          <mxGeometry x="760" y="80" width="190" height="120" as="geometry" />
        </mxCell>
        <mxCell id="Iu7kBV_Y9KcYV4q4U3Mq-47" value="+ id: int&lt;br&gt;+ tip: String&lt;br&gt;+ pilotSayısı : int" style="text;strokeColor=none;fillColor=none;align=left;verticalAlign=top;spacingLeft=4;spacingRight=4;overflow=hidden;rotatable=0;points=[[0,0.5],[1,0.5]];portConstraint=eastwest;whiteSpace=wrap;html=1;" vertex="1" parent="Iu7kBV_Y9KcYV4q4U3Mq-46">
          <mxGeometry y="26" width="190" height="54" as="geometry" />
        </mxCell>
        <mxCell id="Iu7kBV_Y9KcYV4q4U3Mq-48" value="" style="line;strokeWidth=1;fillColor=none;align=left;verticalAlign=middle;spacingTop=-1;spacingLeft=3;spacingRight=3;rotatable=0;labelPosition=right;points=[];portConstraint=eastwest;strokeColor=inherit;" vertex="1" parent="Iu7kBV_Y9KcYV4q4U3Mq-46">
          <mxGeometry y="80" width="190" height="8" as="geometry" />
        </mxCell>
        <mxCell id="Iu7kBV_Y9KcYV4q4U3Mq-49" value="+ Calisma():boolean" style="text;strokeColor=none;fillColor=none;align=left;verticalAlign=top;spacingLeft=4;spacingRight=4;overflow=hidden;rotatable=0;points=[[0,0.5],[1,0.5]];portConstraint=eastwest;whiteSpace=wrap;html=1;" vertex="1" parent="Iu7kBV_Y9KcYV4q4U3Mq-46">
          <mxGeometry y="88" width="190" height="32" as="geometry" />
        </mxCell>
        <mxCell id="Iu7kBV_Y9KcYV4q4U3Mq-54" value="" style="endArrow=none;html=1;rounded=0;entryX=0.005;entryY=-0.019;entryDx=0;entryDy=0;entryPerimeter=0;" edge="1" parent="1" target="Iu7kBV_Y9KcYV4q4U3Mq-20">
          <mxGeometry relative="1" as="geometry">
            <mxPoint x="470" y="360" as="sourcePoint" />
            <mxPoint x="630" y="360" as="targetPoint" />
          </mxGeometry>
        </mxCell>
        <mxCell id="Iu7kBV_Y9KcYV4q4U3Mq-55" value="1" style="text;html=1;align=center;verticalAlign=middle;resizable=0;points=[];autosize=1;strokeColor=none;fillColor=none;" vertex="1" parent="1">
          <mxGeometry x="475" y="328" width="30" height="30" as="geometry" />
        </mxCell>
        <mxCell id="Iu7kBV_Y9KcYV4q4U3Mq-56" value="1..*" style="text;html=1;align=center;verticalAlign=middle;resizable=0;points=[];autosize=1;strokeColor=none;fillColor=none;" vertex="1" parent="1">
          <mxGeometry x="565" y="333" width="40" height="30" as="geometry" />
        </mxCell>
        <mxCell id="Iu7kBV_Y9KcYV4q4U3Mq-57" value="" style="endArrow=none;html=1;rounded=0;entryX=0.005;entryY=-0.019;entryDx=0;entryDy=0;entryPerimeter=0;exitX=0.437;exitY=-0.01;exitDx=0;exitDy=0;exitPerimeter=0;" edge="1" parent="1" source="Iu7kBV_Y9KcYV4q4U3Mq-3">
          <mxGeometry relative="1" as="geometry">
            <mxPoint x="309.5" y="136.5" as="sourcePoint" />
            <mxPoint x="440.5" y="143.5" as="targetPoint" />
            <Array as="points">
              <mxPoint x="360" y="144" />
            </Array>
          </mxGeometry>
        </mxCell>
        <mxCell id="Iu7kBV_Y9KcYV4q4U3Mq-58" value="1..*" style="text;html=1;align=center;verticalAlign=middle;resizable=0;points=[];autosize=1;strokeColor=none;fillColor=none;" vertex="1" parent="1">
          <mxGeometry x="355" y="250" width="40" height="30" as="geometry" />
        </mxCell>
        <mxCell id="Iu7kBV_Y9KcYV4q4U3Mq-59" value="1..*" style="text;html=1;align=center;verticalAlign=middle;resizable=0;points=[];autosize=1;strokeColor=none;fillColor=none;" vertex="1" parent="1">
          <mxGeometry x="400" y="110" width="40" height="30" as="geometry" />
        </mxCell>
        <mxCell id="Iu7kBV_Y9KcYV4q4U3Mq-60" value="" style="endArrow=none;html=1;rounded=0;entryX=1.011;entryY=1.156;entryDx=0;entryDy=0;entryPerimeter=0;exitX=0.437;exitY=-0.01;exitDx=0;exitDy=0;exitPerimeter=0;" edge="1" parent="1" target="Iu7kBV_Y9KcYV4q4U3Mq-44">
          <mxGeometry relative="1" as="geometry">
            <mxPoint x="682.5" y="280" as="sourcePoint" />
            <mxPoint x="760" y="145.5" as="targetPoint" />
            <Array as="points">
              <mxPoint x="683" y="210" />
            </Array>
          </mxGeometry>
        </mxCell>
        <mxCell id="Iu7kBV_Y9KcYV4q4U3Mq-61" value="1..*" style="text;html=1;align=center;verticalAlign=middle;resizable=0;points=[];autosize=1;strokeColor=none;fillColor=none;" vertex="1" parent="1">
          <mxGeometry x="640" y="170" width="40" height="30" as="geometry" />
        </mxCell>
        <mxCell id="Iu7kBV_Y9KcYV4q4U3Mq-62" value="1..*" style="text;html=1;align=center;verticalAlign=middle;resizable=0;points=[];autosize=1;strokeColor=none;fillColor=none;" vertex="1" parent="1">
          <mxGeometry x="690" y="240" width="40" height="30" as="geometry" />
        </mxCell>
        <mxCell id="Iu7kBV_Y9KcYV4q4U3Mq-63" value="" style="endArrow=none;html=1;rounded=0;entryX=1.011;entryY=1.156;entryDx=0;entryDy=0;entryPerimeter=0;exitX=0;exitY=0.5;exitDx=0;exitDy=0;" edge="1" parent="1" source="Iu7kBV_Y9KcYV4q4U3Mq-47">
          <mxGeometry relative="1" as="geometry">
            <mxPoint x="680.5" y="200" as="sourcePoint" />
            <mxPoint x="630" y="125" as="targetPoint" />
            <Array as="points">
              <mxPoint x="681" y="130" />
            </Array>
          </mxGeometry>
        </mxCell>
        <mxCell id="Iu7kBV_Y9KcYV4q4U3Mq-64" value="1" style="text;html=1;align=center;verticalAlign=middle;resizable=0;points=[];autosize=1;strokeColor=none;fillColor=none;" vertex="1" parent="1">
          <mxGeometry x="635" y="90" width="30" height="30" as="geometry" />
        </mxCell>
        <mxCell id="Iu7kBV_Y9KcYV4q4U3Mq-65" value="1..*" style="text;html=1;align=center;verticalAlign=middle;resizable=0;points=[];autosize=1;strokeColor=none;fillColor=none;" vertex="1" parent="1">
          <mxGeometry x="720" y="100" width="40" height="30" as="geometry" />
        </mxCell>
        <mxCell id="Iu7kBV_Y9KcYV4q4U3Mq-66" value="" style="endArrow=none;html=1;rounded=0;entryX=0.526;entryY=1.031;entryDx=0;entryDy=0;entryPerimeter=0;exitX=1.053;exitY=1;exitDx=0;exitDy=0;exitPerimeter=0;" edge="1" parent="1" source="Iu7kBV_Y9KcYV4q4U3Mq-18" target="Iu7kBV_Y9KcYV4q4U3Mq-49">
          <mxGeometry relative="1" as="geometry">
            <mxPoint x="891.44" y="275" as="sourcePoint" />
            <mxPoint x="840.94" y="200" as="targetPoint" />
            <Array as="points">
              <mxPoint x="860" y="360" />
              <mxPoint x="860" y="280" />
            </Array>
          </mxGeometry>
        </mxCell>
        <mxCell id="Iu7kBV_Y9KcYV4q4U3Mq-67" value="1" style="text;html=1;align=center;verticalAlign=middle;resizable=0;points=[];autosize=1;strokeColor=none;fillColor=none;" vertex="1" parent="1">
          <mxGeometry x="870" y="207.01" width="30" height="30" as="geometry" />
        </mxCell>
        <mxCell id="Iu7kBV_Y9KcYV4q4U3Mq-68" value="1..*" style="text;html=1;align=center;verticalAlign=middle;resizable=0;points=[];autosize=1;strokeColor=none;fillColor=none;" vertex="1" parent="1">
          <mxGeometry x="800.94" y="370" width="40" height="30" as="geometry" />
        </mxCell>
      </root>
    </mxGraphModel>
  </diagram>
</mxfile>
